<?xml version="1.0" standalone="no"?><!DOCTYPE svg PUBLIC "-//W3C//DTD SVG 1.1//EN" "http://www.w3.org/Graphics/SVG/1.1/DTD/svg11.dtd"><svg t="1755785738603" class="icon" viewBox="0 0 1024 1024" version="1.1" xmlns="http://www.w3.org/2000/svg" p-id="4299" xmlns:xlink="http://www.w3.org/1999/xlink" width="128" height="128"><path d="M725.333333 622.250667V563.2H699.733333v59.733333h-123.733333V785.066667h25.6v-22.016H699.733333v115.2h25.6v-115.2h98.133334V785.066667h25.6v-162.133334zM699.733333 737.450667h-98.133333V648.533333H699.733333z m123.733334 0H725.333333V648.533333h98.133334z" fill="#333333" p-id="4300"></path><path d="M932.010667 486.741333c10.069333 0 13.994667 3.925333 13.994666 14.165334v438.954666a14.165333 14.165333 0 0 1-13.994666 13.994667H493.056c-10.24 0-14.165333-3.925333-14.165333-13.994667V500.906667c0-10.24 3.925333-14.165333 14.165333-14.165334h438.954667m0-34.133333H493.056a45.568 45.568 0 0 0-48.298667 48.298667v438.954666a45.568 45.568 0 0 0 48.298667 48.128h438.954667a48.298667 48.298667 0 0 0 48.128-48.128V500.906667a45.568 45.568 0 0 0-48.128-48.298667z" fill="#333333" p-id="4301"></path><path d="M531.968 33.109333H93.013333a45.568 45.568 0 0 0-48.128 48.128v438.954667a45.568 45.568 0 0 0 48.128 48.298667h438.954667A48.469333 48.469333 0 0 0 580.266667 520.192V81.237333a45.568 45.568 0 0 0-48.298667-48.128zM246.613333 335.530667a121.856 121.856 0 0 1-20.821333 75.946666 68.266667 68.266667 0 0 1-56.490667 26.794667 68.266667 68.266667 0 0 1-27.477333-4.949333v-34.133334a46.592 46.592 0 0 0 27.306667 7.850667q42.496 0 42.496-71.68V163.157333h34.133333z m208.384-26.282667a98.816 98.816 0 0 1-70.826666 23.381333h-34.986667v101.034667h-34.986667V163.157333h76.8a101.034667 101.034667 0 0 1 68.266667 21.162667 76.288 76.288 0 0 1 24.064 60.416 81.578667 81.578667 0 0 1-28.330667 64.512z" fill="#333333" p-id="4302"></path><path d="M384.682667 194.048h-35.498667v107.861333h32.256a71.168 71.168 0 0 0 48.469333-14.506666 51.2 51.2 0 0 0 17.066667-41.301334c-0.512-34.816-20.309333-52.053333-62.293333-52.053333z" fill="#333333" p-id="4303"></path></svg>